<?xml version="1.0" standalone="no"?>
<!DOCTYPE svg PUBLIC "-//W3C//DTD SVG 20010904//EN"
 "http://www.w3.org/TR/2001/REC-SVG-20010904/DTD/svg10.dtd">
<svg version="1.0" xmlns="http://www.w3.org/2000/svg"
 width="1377.000000pt" height="1033.000000pt" viewBox="0 0 1377.000000 1033.000000"
 preserveAspectRatio="xMidYMid meet">

<g transform="translate(0.000000,1033.000000) scale(0.100000,-0.100000)"
fill="#000000" stroke="none">
<path d="M561 10300 c-6 -19 -17 -30 -28 -30 -11 0 -31 -6 -46 -12 -20 -10
-25 -18 -21 -33 9 -29 14 -32 25 -12 13 22 56 22 63 0 16 -55 17 -201 2 -257
-18 -68 -21 -73 -56 -78 l-25 -4 27 -12 c15 -6 38 -21 52 -33 23 -20 24 -26
19 -93 -4 -46 -12 -75 -21 -82 -17 -13 -11 -96 7 -102 6 -2 11 -19 11 -37 0
-32 -16 -58 -42 -68 -11 -4 -11 -8 0 -23 41 -61 52 -106 52 -208 0 -100 -1
-103 -25 -114 -27 -12 -34 -32 -12 -32 47 0 65 -109 27 -158 -13 -16 -17 -28
-10 -32 6 -4 13 -29 17 -58 5 -46 3 -53 -22 -76 l-28 -26 24 -26 c21 -23 25
-37 29 -137 7 -125 -3 -162 -45 -173 -30 -7 -23 -24 9 -24 27 0 41 -14 50 -52
8 -34 -17 -98 -38 -98 -22 0 -20 -16 6 -40 19 -17 23 -34 26 -95 4 -62 1 -76
-12 -81 -20 -8 -21 -30 -2 -37 9 -4 17 -28 21 -64 4 -32 12 -63 17 -70 5 -7 5
-42 -1 -89 -8 -67 -7 -82 6 -96 23 -26 13 -115 -17 -156 -20 -27 -22 -35 -12
-57 18 -39 15 -102 -5 -113 -15 -9 -15 -14 5 -63 17 -41 23 -82 27 -174 3 -66
9 -147 14 -179 9 -66 5 -93 -17 -118 -8 -10 -12 -27 -9 -39 3 -12 0 -30 -6
-41 -9 -16 -9 -22 1 -25 15 -6 17 -99 2 -108 -13 -8 -13 -45 -1 -45 14 0 6
-217 -9 -235 -18 -21 -3 -69 31 -99 34 -31 37 -64 8 -89 -13 -12 -18 -24 -14
-35 4 -9 10 -39 14 -65 8 -44 6 -51 -16 -71 -21 -19 -22 -26 -13 -50 15 -41
12 -103 -6 -132 -14 -20 -15 -30 -5 -50 6 -14 11 -40 11 -58 0 -62 11 -96 31
-96 23 0 27 -45 5 -53 -30 -12 -37 -43 -16 -70 27 -34 25 -128 -1 -111 -6 3
-15 1 -22 -5 -15 -12 -31 -3 -40 22 -9 25 -29 21 -25 -5 2 -13 9 -22 16 -21 6
2 19 -8 28 -22 13 -20 15 -38 10 -88 -4 -34 -11 -69 -16 -77 -6 -10 -3 -21 10
-35 33 -36 54 -221 30 -266 -8 -14 -7 -26 3 -46 20 -40 21 -127 2 -143 -12
-10 -14 -26 -8 -82 4 -49 3 -72 -6 -77 -12 -8 0 -116 21 -192 6 -20 8 -45 4
-55 -3 -10 -2 -54 3 -98 7 -58 6 -86 -4 -110 -7 -18 -9 -39 -5 -51 5 -11 6
-30 3 -42 -3 -12 0 -29 5 -39 7 -13 5 -25 -9 -44 -18 -24 -19 -29 -5 -75 21
-73 36 -208 25 -221 -6 -8 -6 -28 0 -55 11 -47 3 -72 -29 -89 -11 -6 -20 -20
-20 -31 0 -11 4 -18 9 -15 11 7 24 -94 16 -116 -4 -9 -13 -19 -20 -22 -11 -4
-11 -11 1 -43 20 -58 18 -135 -6 -166 -25 -32 -25 -62 0 -87 11 -11 20 -29 20
-41 0 -24 36 -79 52 -79 14 0 83 -74 114 -122 13 -20 33 -42 44 -48 11 -6 20
-16 20 -24 0 -23 85 -101 125 -114 62 -21 101 -40 115 -57 7 -8 23 -15 35 -15
12 0 28 -7 35 -15 15 -18 105 -65 124 -65 7 0 21 -9 32 -21 10 -11 34 -27 52
-35 18 -7 50 -27 70 -44 20 -16 40 -30 44 -30 5 0 29 -20 54 -45 49 -47 104
-125 131 -187 9 -21 22 -38 29 -38 18 0 27 -36 15 -59 -31 -57 -5 -63 105 -25
69 23 94 25 94 5 0 -5 -15 -12 -33 -15 -19 -3 -44 -17 -57 -31 -13 -14 -29
-25 -37 -25 -7 0 -13 -4 -13 -9 0 -5 -17 -12 -37 -16 -53 -10 -74 18 -109 142
-2 7 -10 10 -20 6 -10 -4 -24 3 -37 18 -35 40 -70 57 -94 48 -33 -12 -37 -28
-8 -35 17 -4 25 -13 25 -28 0 -11 7 -30 15 -40 8 -11 18 -41 21 -68 5 -35 15
-57 35 -78 l29 -29 -23 -27 c-21 -24 -22 -32 -13 -56 6 -15 18 -31 28 -34 10
-3 23 -17 30 -32 16 -33 49 -36 63 -4 5 12 13 22 17 22 4 0 14 15 22 33 11 28
22 36 60 47 26 7 49 16 51 21 3 4 27 15 54 24 27 9 55 23 61 31 7 7 21 14 32
14 10 0 21 7 24 15 4 8 10 12 16 9 17 -11 78 6 78 22 0 16 41 36 52 25 12 -11
-14 -69 -36 -80 -17 -8 -13 -10 24 -9 57 1 70 11 70 57 1 20 9 46 20 59 16 20
22 21 39 10 30 -18 27 -62 -5 -87 -17 -13 -24 -28 -22 -43 2 -19 -2 -23 -27
-26 -28 -3 -31 -6 -31 -37 0 -19 -7 -41 -15 -47 -9 -7 -33 -38 -54 -68 -21
-30 -44 -59 -52 -63 -29 -18 -60 -53 -56 -64 7 -19 -28 -16 -42 4 -11 14 -15
15 -28 4 -24 -19 -40 -4 -22 22 16 22 46 32 55 16 4 -5 14 -3 25 5 28 21 12
46 -30 46 -23 0 -35 5 -35 13 0 15 -41 37 -66 37 -17 0 -44 -23 -44 -37 0 -5
7 -19 16 -31 15 -22 17 -22 41 -7 32 22 38 15 17 -22 -17 -28 -16 -32 2 -76
10 -26 24 -47 31 -47 7 0 17 -19 23 -41 6 -23 22 -52 36 -66 13 -13 24 -26 24
-29 0 -3 8 -14 19 -25 10 -11 21 -33 24 -48 3 -16 14 -37 24 -47 19 -18 27
-31 65 -104 14 -25 32 -58 40 -75 9 -16 33 -66 53 -110 21 -44 41 -87 46 -95
5 -8 12 -23 15 -32 4 -10 15 -18 26 -18 16 0 19 -5 13 -29 -7 -31 18 -95 52
-139 17 -20 21 -21 38 -8 16 12 17 16 6 30 -11 13 -11 20 3 41 9 14 22 25 28
25 6 0 8 3 5 7 -8 7 11 33 24 33 5 0 9 -11 9 -25 0 -27 -19 -75 -31 -75 -4 0
-6 -21 -5 -48 1 -41 -2 -47 -21 -50 -19 -3 -21 -8 -16 -35 3 -18 10 -34 15
-35 4 -2 8 -19 8 -38 0 -19 5 -34 10 -34 6 0 10 -7 10 -15 0 -9 7 -18 16 -22
11 -4 13 -13 9 -35 -5 -22 -2 -35 13 -51 11 -12 26 -47 34 -77 l13 -55 523 -3
c462 -2 522 0 522 13 0 8 4 24 10 35 5 11 15 29 20 40 6 11 17 50 26 87 10 42
23 72 35 81 11 8 19 25 19 43 0 16 11 47 25 69 l25 40 40 -25 c22 -14 43 -25
47 -25 5 0 23 -14 42 -31 l33 -31 -7 -94 -7 -94 26 -10 c15 -5 31 -21 36 -35
5 -14 16 -25 25 -25 8 0 20 -9 27 -20 12 -19 24 -20 235 -20 194 0 222 2 217
15 -9 21 11 42 47 49 40 8 69 -8 69 -39 l0 -25 4235 0 c3758 0 4235 2 4235 15
0 8 5 15 10 15 6 0 10 6 10 14 0 7 10 26 23 42 22 29 36 60 62 145 8 25 33 65
55 90 22 24 40 51 40 60 0 8 8 24 18 35 10 10 35 49 55 86 21 38 53 80 72 95
32 26 35 33 35 80 0 28 5 55 10 58 6 4 26 39 44 78 19 40 43 83 55 96 11 13
21 30 21 38 0 25 38 97 70 132 16 18 30 44 30 57 0 35 26 54 76 54 l44 0 0
208 0 207 -64 0 c-55 0 -69 -4 -92 -25 l-27 -25 7 44 c4 24 14 50 24 57 9 6
17 28 19 49 3 54 17 65 79 65 l54 0 0 4080 c0 2429 -4 4080 -9 4080 -5 0 -7
-37 -5 -82 2 -46 1 -77 -2 -70 -3 6 -10 12 -15 12 -12 0 -11 -44 1 -56 14 -14
2 -44 -18 -44 -19 0 -72 49 -72 66 0 6 7 17 15 24 22 18 18 38 -12 64 -20 17
-24 28 -18 42 7 17 10 37 17 114 2 34 -21 188 -34 223 -6 15 -16 27 -22 27 -7
0 -10 14 -8 40 4 40 4 40 -32 40 -20 0 -36 -4 -36 -10 0 -5 6 -10 14 -10 17 0
27 -22 17 -38 -17 -28 -90 8 -91 46 0 9 -190 12 -914 12 -861 0 -914 -1 -921
-17 -3 -10 -7 -77 -9 -149 -1 -84 -6 -137 -13 -146 -8 -9 -10 -29 -6 -51 4
-26 0 -45 -14 -69 -14 -23 -19 -44 -16 -70 5 -33 2 -39 -21 -49 -14 -7 -26
-19 -26 -26 0 -8 -13 -33 -29 -57 -32 -47 -42 -87 -24 -93 7 -3 17 7 23 22 9
23 14 26 38 20 36 -9 36 -8 22 -51 -7 -21 -20 -39 -31 -41 -23 -6 -23 -10 -4
-29 8 -9 15 -11 15 -5 0 6 7 11 15 11 19 0 19 -19 0 -40 -9 -10 -18 -35 -22
-56 -3 -22 -15 -54 -26 -72 -17 -30 -24 -33 -49 -28 -28 6 -30 4 -24 -19 25
-100 14 -165 -28 -165 -14 0 -28 -4 -31 -10 -3 -5 -12 -10 -18 -10 -8 0 -12
28 -12 93 0 81 3 96 23 121 12 16 22 42 22 57 0 16 4 29 9 29 15 0 18 69 5
148 -9 54 -10 89 -3 115 8 29 7 42 -2 54 -7 8 -13 23 -14 34 -1 15 5 19 27 19
23 0 29 4 26 18 -3 11 -12 16 -26 15 -12 -2 -22 2 -22 7 0 6 9 10 20 10 23 0
25 9 9 44 -10 20 -9 28 5 41 22 22 20 41 -6 59 -30 21 -31 55 -1 67 30 11 32
18 37 109 3 41 11 93 19 115 l15 40 -191 3 c-131 2 -193 -1 -197 -9 -4 -6 -11
-10 -16 -9 -5 0 -10 -8 -12 -20 -2 -11 -8 -20 -13 -20 -17 0 -9 -60 11 -80 11
-11 18 -25 15 -32 -2 -7 -6 -38 -9 -68 -2 -30 -11 -68 -20 -85 -20 -38 -22
-67 -3 -40 22 29 34 10 31 -52 -3 -79 -13 -121 -33 -136 -21 -16 -47 -64 -55
-103 -4 -17 -16 -41 -27 -53 -11 -12 -18 -25 -15 -30 3 -4 -4 -25 -14 -47 -11
-21 -20 -50 -20 -64 0 -14 -6 -34 -14 -45 -7 -11 -16 -42 -20 -70 -3 -27 -14
-61 -24 -75 -17 -24 -30 -50 -97 -197 -19 -40 -33 -59 -42 -56 -15 6 -18 33
-3 33 6 0 10 5 10 10 0 6 -13 10 -30 10 -24 0 -30 -4 -30 -21 0 -40 -34 -82
-82 -101 -15 -6 -18 -2 -18 31 0 42 -24 71 -56 70 -10 0 -37 -22 -59 -47 l-40
-47 -26 30 c-15 17 -29 41 -31 54 -4 34 -28 39 -28 7 0 -46 -63 -55 -158 -23
-25 9 -38 8 -54 -2 -17 -11 -22 -11 -29 1 -18 28 -2 62 24 52 13 -5 16 -2 11
10 -4 11 3 25 19 39 28 24 47 77 28 77 -6 0 -20 -9 -31 -20 -11 -11 -22 -20
-25 -20 -10 0 -4 22 10 36 8 9 15 24 15 34 0 11 8 24 18 29 14 9 12 10 -13 11
-30 0 -31 -2 -45 -62 -8 -35 -14 -73 -14 -85 -1 -13 -13 -34 -28 -48 -14 -13
-29 -34 -33 -45 -5 -15 -12 -19 -27 -15 -14 5 -21 1 -25 -13 -5 -20 -72 -72
-92 -72 -27 0 -25 162 3 202 9 12 16 32 16 43 0 11 14 45 31 75 18 30 35 73
39 95 13 66 41 168 56 203 8 18 14 44 14 57 0 14 11 54 25 91 14 36 25 77 25
90 0 12 5 26 10 29 6 3 10 18 10 33 0 15 7 36 15 46 8 11 15 34 15 52 0 18 5
45 11 61 6 15 15 55 20 88 18 129 24 150 41 153 13 2 16 -1 12 -11 -3 -9 2
-27 12 -42 14 -22 15 -32 6 -63 -10 -33 -9 -85 3 -120 9 -26 43 6 48 45 19
147 46 203 81 168 20 -21 31 -19 43 7 8 18 6 29 -10 50 l-21 28 -272 0 -272 0
-6 -26 c-5 -20 -12 -25 -26 -21 -22 6 -45 -16 -35 -33 4 -6 -1 -29 -9 -53 -9
-23 -18 -58 -21 -77 -14 -107 -24 -144 -43 -159 -20 -15 -55 -88 -51 -107 5
-29 -4 -63 -21 -82 -27 -29 -36 -28 -45 5 -4 19 -2 31 9 39 9 6 16 21 16 32 0
11 5 24 10 27 21 13 11 64 -15 81 -20 13 -25 24 -23 48 2 25 -1 31 -16 31 -10
0 -24 -9 -30 -20 -6 -11 -19 -26 -28 -33 -12 -9 -18 -27 -18 -57 0 -57 -8 -75
-34 -76 -11 0 -16 -3 -9 -5 8 -4 9 -14 3 -34 -4 -16 -6 -31 -3 -34 3 -3 0 -12
-7 -21 -14 -16 -3 -20 19 -6 21 14 72 -50 78 -99 l6 -40 -89 5 c-54 2 -83 1
-74 -5 12 -7 9 -14 -15 -36 -23 -21 -28 -34 -27 -61 3 -39 -12 -63 -39 -63
-16 0 -17 7 -13 63 10 135 11 177 4 177 -4 0 -5 10 -3 23 3 16 -2 25 -19 32
-19 9 -23 18 -25 67 -1 32 2 60 7 63 6 4 10 18 10 32 0 17 4 23 14 20 15 -6
36 11 36 29 0 7 -10 14 -22 16 -26 3 -38 38 -14 38 12 0 16 11 17 38 1 20 1
41 0 46 -1 4 3 14 9 22 12 14 5 54 -10 54 -5 0 -12 17 -16 38 -4 20 -12 40
-18 44 -7 5 -3 17 12 37 12 17 22 33 22 36 0 3 -400 5 -890 5 -545 0 -890 -4
-890 -9 0 -5 5 -22 10 -36 8 -21 6 -37 -10 -72 -15 -35 -19 -59 -15 -108 4
-57 3 -63 -16 -68 -19 -5 -20 -10 -13 -49 9 -53 7 -89 -6 -102 -6 -6 -4 -16 6
-27 18 -20 6 -52 -26 -69 -11 -6 -20 -17 -20 -25 0 -8 -4 -16 -10 -16 -5 -1
-14 -2 -20 -3 -16 -2 -7 -40 16 -63 12 -13 8 -60 -7 -69 -5 -3 -9 -18 -9 -34
0 -16 -4 -31 -10 -35 -5 -3 -6 -15 -1 -28 5 -12 5 -34 1 -49 -10 -31 -2 -42
17 -26 10 8 17 8 25 0 14 -14 -4 -97 -27 -122 -15 -16 -11 -54 8 -77 5 -7 7
-20 3 -28 -3 -9 0 -15 9 -15 8 0 15 7 15 15 0 8 9 20 20 27 11 7 20 23 20 36
0 18 4 22 15 18 8 -3 21 -9 29 -12 11 -4 16 4 18 28 l4 33 7 -30 c4 -16 12
-44 17 -60 6 -17 8 -67 5 -110 -3 -48 0 -92 7 -112 9 -25 9 -37 -1 -56 -11
-21 -11 -28 3 -49 13 -20 14 -34 6 -85 -6 -34 -7 -85 -2 -114 6 -45 11 -54 32
-59 22 -5 26 -12 32 -70 4 -36 10 -75 13 -87 3 -13 1 -23 -6 -23 -15 0 -7 -43
10 -48 10 -3 12 2 7 21 -8 33 13 41 50 16 21 -14 39 -17 67 -12 l39 6 -3 -39
c-5 -80 0 -124 16 -124 8 0 15 -9 15 -20 0 -32 49 -26 85 11 22 22 35 29 52
24 13 -3 23 -1 23 4 0 6 7 8 15 4 17 -6 36 13 61 65 26 52 41 41 36 -28 -4
-50 -2 -60 11 -60 9 0 22 8 29 18 18 23 77 72 89 72 8 0 6 -44 -6 -143 -2 -16
-11 -38 -21 -48 -11 -12 -14 -23 -8 -28 13 -12 97 -22 110 -13 19 14 54 79 54
103 1 13 7 35 15 49 8 14 14 37 15 53 0 15 6 27 13 27 9 0 8 3 -2 9 -11 7 -9
10 8 16 12 3 21 15 21 26 0 28 38 40 73 23 15 -8 27 -18 27 -22 0 -4 7 -16 15
-26 15 -20 15 -20 29 0 14 19 15 19 36 -3 11 -13 32 -26 46 -29 23 -6 24 -9
19 -53 -3 -25 -8 -57 -11 -70 -5 -22 -2 -23 33 -20 l38 4 -4 -38 c-4 -44 6
-59 34 -51 14 3 28 25 43 64 27 68 35 77 81 82 l34 3 -2 -82 c-1 -53 2 -84 9
-88 7 -4 31 11 58 37 26 25 54 48 62 50 9 3 16 18 18 34 1 15 4 29 6 32 8 7
156 8 156 0 0 -3 -4 -18 -10 -32 -9 -23 -7 -26 15 -26 16 0 25 -6 27 -21 2
-11 15 -28 29 -36 26 -16 28 -15 53 10 30 30 37 32 55 15 10 -11 19 -6 45 23
17 20 40 55 50 78 11 22 22 41 26 41 4 0 17 22 28 48 22 51 113 145 120 124 5
-15 48 -16 57 -2 11 17 47 11 52 -9 5 -18 6 -18 22 -2 12 12 29 16 59 13 42
-4 47 -10 43 -54 -3 -30 16 -20 54 27 21 25 41 43 45 40 4 -3 29 -2 54 1 36 5
57 17 94 50 51 48 51 48 71 35 11 -7 9 -10 -8 -16 -11 -3 -21 -13 -21 -22 0
-20 47 -76 54 -64 3 5 20 11 38 14 18 3 45 9 60 12 23 6 29 3 39 -18 7 -15 22
-27 40 -31 26 -5 28 -8 23 -36 -6 -28 -5 -30 24 -30 31 0 52 -15 30 -22 -13
-5 -3 -58 11 -58 16 0 44 52 32 59 -7 5 1 16 20 30 25 19 36 21 53 13 11 -6
29 -13 39 -16 9 -3 17 -12 17 -21 0 -31 61 -125 81 -125 4 0 11 10 15 23 3 12
13 30 21 39 9 9 18 32 22 50 5 26 12 34 33 36 27 3 27 3 26 -60 -1 -54 -5 -68
-30 -99 -25 -31 -28 -42 -23 -73 6 -29 12 -36 31 -36 18 0 24 6 24 23 1 25 16
47 45 63 11 6 21 21 23 33 4 22 48 51 80 51 23 0 47 26 56 61 13 58 75 42 77
-19 1 -20 1 -40 0 -44 0 -5 3 -8 9 -8 16 0 12 -57 -4 -63 -20 -8 -49 -64 -36
-72 19 -12 64 29 71 63 1 4 13 23 28 42 15 19 32 48 39 63 7 16 18 27 25 24
19 -7 10 -62 -18 -103 -26 -38 -32 -64 -15 -64 5 0 13 7 18 16 6 11 8 -1 4
-36 -3 -37 -17 -74 -44 -122 -37 -63 -43 -98 -18 -98 5 0 10 -7 10 -15 0 -29
26 -14 39 23 8 20 23 57 34 82 11 25 28 65 39 90 11 25 24 53 29 63 5 9 13 25
17 35 5 9 14 27 20 39 7 13 12 28 12 35 0 23 97 143 120 148 15 4 29 20 41 50
10 25 18 40 18 34 1 -7 11 -14 22 -17 18 -5 21 -11 15 -39 -6 -32 -4 -35 27
-46 19 -7 42 -21 52 -32 10 -11 24 -20 32 -20 8 0 13 -13 14 -37 0 -21 3 -76
5 -123 9 -142 4 -233 -15 -283 -13 -33 -13 -145 -2 -202 5 -22 9 -30 10 -17 1
30 21 28 21 -3 0 -14 4 -25 8 -25 18 0 62 -47 73 -77 8 -26 8 -39 -4 -63 -17
-32 -16 -41 3 -85 18 -42 24 -149 12 -231 -6 -44 -7 -91 -1 -129 5 -33 9 -69
9 -80 -2 -67 0 -86 15 -114 28 -54 64 -50 65 7 0 23 32 62 51 62 14 0 6 -75
-10 -94 -7 -8 -21 -18 -32 -21 -25 -8 -25 -35 0 -35 11 0 22 4 25 8 6 9 59 7
75 -3 7 -4 10 -38 9 -92 -3 -86 -3 -86 26 -102 22 -13 29 -24 31 -51 1 -20 6
-44 12 -54 7 -13 7 -29 0 -53 -8 -26 -8 -40 2 -55 8 -14 9 -23 2 -32 -26 -31
-9 -142 25 -169 29 -23 31 -48 4 -65 -17 -10 -21 -22 -19 -63 2 -28 -3 -55 -9
-61 -15 -15 -16 -52 -2 -43 16 10 12 -12 -10 -60 -12 -27 -18 -54 -14 -69 7
-29 -47 -205 -73 -237 -6 -8 -14 -30 -18 -49 -4 -19 -11 -39 -15 -45 -10 -14
-33 -85 -36 -114 -2 -20 -11 -41 -56 -133 -4 -10 -8 -33 -8 -52 0 -24 -7 -40
-22 -53 -28 -22 -59 -108 -45 -122 6 -6 4 -15 -7 -27 -10 -9 -15 -23 -12 -30
3 -9 -2 -14 -13 -14 -19 0 -30 -28 -50 -129 -9 -41 -9 -56 0 -62 14 -8 -5 -94
-27 -119 -7 -8 -10 -27 -7 -43 4 -21 2 -26 -10 -21 -11 4 -16 -4 -20 -38 -6
-55 -33 -127 -58 -154 -10 -11 -19 -24 -19 -27 0 -4 -8 -24 -17 -45 -9 -20
-17 -42 -18 -47 -1 -17 -35 -60 -43 -55 -3 3 -8 -4 -10 -14 -3 -14 0 -17 12
-13 12 5 16 0 16 -23 0 -16 -6 -33 -13 -37 -7 -4 -28 -34 -46 -65 -18 -32 -37
-58 -42 -58 -5 0 -9 -11 -9 -24 0 -14 -8 -31 -18 -38 -11 -7 -24 -30 -31 -50
-7 -21 -16 -40 -21 -43 -10 -6 -45 -79 -55 -115 -4 -14 -12 -28 -18 -32 -6 -3
-13 -35 -15 -70 -5 -66 -4 -65 -89 -139 -38 -33 -76 -86 -100 -136 -14 -29
-31 -57 -39 -64 -8 -6 -14 -15 -14 -20 0 -5 -20 -43 -45 -85 -25 -41 -45 -78
-45 -81 0 -7 -59 -83 -82 -106 -10 -10 -18 -24 -18 -32 0 -8 -15 -32 -33 -52
-18 -21 -46 -56 -62 -78 -16 -22 -34 -45 -40 -51 -5 -6 -30 -35 -55 -65 -25
-29 -76 -87 -115 -129 -38 -41 -76 -83 -85 -94 -35 -43 -173 -176 -181 -176
-5 0 -9 -4 -9 -9 0 -13 -169 -176 -277 -266 -26 -22 -67 -60 -90 -84 -23 -23
-64 -57 -90 -73 -26 -17 -51 -36 -55 -43 -5 -7 -32 -29 -60 -48 -29 -19 -62
-44 -72 -56 -11 -12 -23 -21 -28 -21 -15 0 -47 -43 -48 -62 0 -19 25 -25 35
-8 3 5 21 10 39 10 29 0 70 17 141 57 43 24 195 83 214 83 12 0 21 5 21 10 0
6 5 10 11 10 5 0 31 16 56 35 25 19 52 35 59 35 8 0 14 6 14 13 0 8 21 25 46
38 26 13 60 36 76 51 22 21 36 26 54 22 18 -5 26 -1 31 12 9 25 22 37 55 51
18 8 25 17 22 30 -4 15 2 18 42 20 43 2 45 1 31 -15 -8 -9 -20 -34 -28 -55 -7
-20 -19 -37 -26 -37 -15 0 -17 -22 -3 -36 16 -16 -7 -70 -35 -82 -14 -7 -25
-18 -25 -26 0 -25 -22 -66 -35 -66 -18 0 -65 -65 -65 -90 0 -12 7 -28 15 -36
8 -9 15 -25 15 -37 0 -18 -2 -19 -10 -7 -5 8 -12 11 -17 7 -4 -4 -3 -15 3 -25
11 -17 -5 -92 -25 -116 -5 -6 -12 -35 -16 -65 -4 -31 -15 -61 -26 -72 -11 -11
-22 -33 -26 -50 -3 -16 -10 -32 -14 -35 -5 -3 -9 -13 -9 -22 0 -9 -16 -34 -35
-55 -19 -21 -35 -45 -35 -54 0 -10 -6 -14 -20 -10 -15 4 -22 -1 -27 -21 -16
-67 -96 -149 -173 -178 -8 -3 -22 -10 -30 -15 -46 -27 -183 -88 -190 -84 -4 3
-13 -2 -20 -10 -7 -8 -19 -15 -26 -15 -8 0 -22 -4 -32 -9 -9 -5 -55 -24 -102
-41 -47 -18 -93 -36 -102 -41 -23 -12 -52 -11 -64 1 -7 7 -21 0 -44 -20 -18
-16 -44 -30 -57 -30 -13 0 -23 -5 -23 -11 0 -8 -21 -9 -65 -6 -39 4 -65 2 -65
-4 0 -5 -20 -18 -45 -29 -46 -20 -83 -21 -119 -5 -13 6 -23 3 -31 -8 -15 -21
-25 -21 -40 -1 -9 13 -16 14 -32 6 -11 -6 -29 -8 -41 -5 -13 3 -22 1 -22 -6 0
-6 -5 -11 -11 -11 -6 0 -22 -9 -36 -20 -14 -11 -33 -20 -42 -20 -9 0 -26 -18
-39 -40 -26 -46 -41 -46 -34 1 3 20 0 34 -9 40 -22 14 -26 11 -38 -22 -9 -27
-13 -29 -32 -18 -14 7 -24 7 -28 1 -10 -15 -49 -24 -56 -12 -3 5 -17 10 -31
10 -14 0 -27 7 -30 15 -3 8 -19 21 -35 29 -32 16 -42 9 -53 -36 -13 -55 -67
-78 -74 -30 -2 12 -6 22 -9 22 -11 0 -53 -51 -53 -65 0 -18 -17 -28 -25 -15
-4 7 -14 5 -28 -5 -32 -22 -39 -19 -32 15 4 18 2 30 -3 30 -24 0 -44 -14 -53
-36 -6 -17 -16 -24 -36 -24 -15 0 -37 -9 -49 -21 -28 -26 -41 -19 -50 26 -8
43 -15 44 -32 5 -15 -32 -47 -46 -81 -35 -12 3 -21 12 -21 19 0 26 -27 39 -52
25 -15 -8 -18 -14 -10 -17 19 -6 -26 -36 -59 -38 -15 -1 -40 -9 -57 -18 -17
-9 -33 -16 -37 -16 -12 0 -4 30 19 71 14 24 23 46 20 51 -12 19 -52 5 -89 -31
-76 -76 -107 -101 -120 -101 -8 0 -16 -4 -19 -9 -8 -13 -77 -19 -72 -7 2 6 9
10 16 8 8 -2 11 6 8 23 -3 14 -1 25 3 25 5 0 9 11 9 25 0 19 -4 23 -17 18 -13
-5 -15 -2 -10 11 4 9 0 27 -8 40 -17 25 -10 36 29 50 15 5 16 9 6 21 -16 20
-34 19 -26 -1 4 -11 1 -14 -12 -12 -9 2 -16 10 -14 16 4 19 -16 14 -31 -9 -14
-20 -16 -20 -41 -4 -14 10 -26 21 -26 25 0 16 89 60 120 60 21 0 30 4 27 13
-2 6 -13 11 -23 10 -10 -2 -28 1 -39 6 -26 12 -116 41 -127 41 -4 0 -8 -38 -8
-84 0 -80 -2 -86 -32 -124 -56 -67 -177 -142 -232 -142 -12 0 -32 7 -44 16
-14 9 -34 14 -49 11 -17 -3 -40 4 -70 23 -25 16 -51 26 -59 23 -20 -7 -44 -61
-44 -100 0 -18 -4 -33 -9 -33 -6 0 -16 -12 -23 -27 -16 -33 -85 -57 -141 -48
-24 3 -48 0 -67 -10 -16 -8 -45 -15 -64 -15 -19 0 -37 -4 -40 -9 -3 -5 -32
-12 -63 -17 -69 -9 -57 -6 -116 -32 -56 -25 -64 -26 -69 -10 -3 8 -12 8 -35
-2 -18 -8 -30 -17 -27 -21 9 -15 -30 -32 -93 -40 -38 -5 -89 -11 -115 -15 -51
-7 -58 -1 -32 27 17 18 12 39 -9 39 -7 0 -20 -9 -30 -20 -18 -21 -87 -29 -87
-10 0 6 4 10 8 10 17 0 13 82 -5 102 -19 21 -72 47 -113 54 -32 7 -34 9 -19
32 10 17 10 25 -4 46 -11 16 -23 23 -32 20 -8 -4 -15 -1 -15 5 0 6 -5 11 -11
11 -11 0 -69 57 -69 69 0 3 -29 37 -65 74 -36 37 -65 73 -65 80 0 7 -12 23
-25 36 -14 13 -25 28 -25 35 0 6 -14 26 -30 44 -16 18 -30 37 -30 43 0 5 -6 9
-14 9 -15 0 -66 83 -66 107 0 8 -11 24 -25 35 -14 11 -25 30 -25 43 0 13 -6
28 -14 32 -18 11 -36 47 -36 75 0 13 -9 29 -20 36 -11 7 -20 23 -20 37 0 13
-9 31 -21 39 -17 11 -20 21 -15 41 6 23 11 26 31 21 20 -5 25 -3 25 13 0 11
-5 23 -10 26 -6 4 -8 10 -6 14 3 4 -3 24 -14 43 -10 20 -19 44 -19 54 -2 55
-24 195 -38 236 -12 38 -13 55 -4 79 14 40 14 89 1 89 -6 0 -8 23 -4 58 3 31
0 95 -5 142 -18 146 -8 260 24 260 22 0 37 38 39 100 1 14 9 33 19 43 37 37
12 133 -43 162 -18 9 -30 23 -30 35 0 11 -12 33 -27 49 -37 39 -59 65 -116
136 -27 33 -56 67 -65 76 -10 9 -35 39 -57 68 -22 29 -55 70 -72 91 -18 20
-33 41 -33 46 0 5 -17 32 -38 60 -70 95 -81 111 -122 195 -22 45 -45 88 -50
94 -16 20 -107 201 -119 238 -20 59 -44 69 -153 63 -179 -10 -383 -25 -427
-32 -115 -17 -221 46 -221 132 0 34 6 48 34 76 18 18 44 38 57 44 114 53 160
69 234 79 28 4 84 18 126 31 42 14 91 23 110 22 31 -3 34 0 37 26 2 16 -1 39
-7 50 -5 12 -24 66 -42 121 -17 55 -40 125 -50 156 -11 30 -19 65 -19 78 0 12
-8 43 -19 69 -10 26 -26 72 -35 102 -34 113 -68 215 -76 225 -4 6 -15 42 -25
80 -23 97 -55 164 -85 181 -14 7 -45 32 -70 54 -24 22 -47 40 -51 40 -11 0
-39 66 -39 92 0 14 16 47 35 74 19 27 35 56 35 66 0 9 -15 63 -34 120 -48 147
-72 233 -86 308 -12 71 -36 161 -51 199 -5 13 -7 31 -4 41 3 10 1 21 -4 24 -6
4 -8 52 -5 119 4 127 -1 167 -23 167 -8 0 -13 7 -11 18 2 9 10 17 18 17 10 0
18 21 27 73 24 143 59 195 96 142 10 -14 20 -18 33 -13 37 14 51 44 52 111 1
42 7 70 16 81 9 10 17 26 19 37 2 10 7 26 11 35 4 8 2 27 -3 41 -8 22 -7 25 8
21 11 -3 21 2 24 11 4 9 13 13 20 10 19 -7 25 24 22 109 -3 64 -1 69 21 77 15
6 24 18 24 32 1 24 31 68 48 68 5 0 9 8 8 17 0 11 6 18 19 18 14 0 21 8 23 28
2 15 12 32 23 37 11 6 19 21 19 36 0 17 7 28 20 31 27 7 34 38 16 65 -20 28
-20 38 -3 38 29 0 50 38 44 79 -2 21 -1 44 3 52 5 7 2 29 -7 50 -10 26 -12 43
-5 56 5 10 10 43 10 74 0 55 9 80 57 168 16 30 22 54 18 73 -3 17 -1 28 6 28
6 0 11 -4 11 -10 0 -5 5 -10 11 -10 6 0 8 8 4 19 -3 10 1 24 10 31 8 7 15 25
15 40 0 15 6 33 14 39 7 6 16 29 20 50 6 39 25 63 53 67 18 3 15 -2 37 64 24
70 34 83 62 76 16 -4 31 3 54 24 18 17 38 30 44 29 6 -1 20 2 30 6 13 6 21 4
24 -3 6 -19 20 -14 28 11 3 12 14 30 22 40 15 17 15 19 -1 28 -24 14 -22 24
18 62 35 34 36 36 37 121 1 48 5 89 11 93 5 3 6 32 2 69 -5 47 -3 71 8 91 26
49 38 116 41 213 1 52 8 105 15 118 10 18 9 23 -3 28 -25 9 -30 60 -9 94 13
23 15 34 7 48 -10 16 -3 98 12 137 5 13 52 91 87 144 16 24 26 50 22 58 -3 9
2 24 11 34 14 16 14 19 0 42 -12 17 -14 31 -8 48 5 13 6 33 1 44 -11 28 -11
37 0 30 15 -8 30 27 29 66 0 19 3 44 7 57 l7 22 -2015 0 -2015 0 -11 -30z
m9679 -16 c0 -8 -5 -12 -10 -9 -6 4 -8 11 -5 16 9 14 15 11 15 -7z m858 -26
c-2 -6 -10 -14 -16 -16 -7 -2 -10 2 -6 12 7 18 28 22 22 4z m2439 -84 c27 -7
48 -70 38 -115 -4 -16 -8 -29 -10 -29 -35 0 -77 65 -71 111 3 19 5 35 5 37 1
3 14 2 38 -4z m-3706 -78 c-10 -12 -8 -23 9 -57 27 -51 16 -89 -25 -89 -21 0
-25 -5 -25 -29 0 -16 5 -42 10 -56 8 -22 8 -26 -4 -22 -15 6 -26 -20 -26 -60
0 -30 -10 -29 -33 3 -21 29 -16 54 13 61 17 5 18 11 12 52 -13 83 -8 124 23
184 26 50 31 55 44 43 11 -12 12 -18 2 -30z m-601 -52 c0 -11 -4 -12 -19 -4
-27 14 -34 28 -26 48 6 15 9 14 26 -7 10 -13 19 -30 19 -37z m-30 -74 c0 -62
-11 -75 -36 -42 -19 24 -17 40 6 47 11 4 18 10 15 15 -5 8 4 40 11 40 2 0 4
-27 4 -60z m4094 -82 c-12 -18 -24 6 -24 45 l1 42 14 -39 c8 -22 12 -43 9 -48z
m319 35 c-7 -2 -13 -11 -13 -20 0 -20 -34 -12 -38 10 -3 13 3 17 30 16 18 0
27 -3 21 -6z m-4084 -74 c1 11 4 11 16 1 8 -7 15 -18 15 -25 0 -7 -7 -15 -15
-19 -10 -3 -15 -19 -15 -48 0 -39 -1 -40 -15 -22 -15 20 -19 82 -8 124 l7 25
7 -25 c4 -14 7 -19 8 -11z m4071 -44 c0 -8 -2 -15 -4 -15 -2 0 -6 7 -10 15 -3
8 -1 15 4 15 6 0 10 -7 10 -15z m-3843 -94 c13 -40 9 -71 -8 -71 -5 0 -9 -9
-9 -20 0 -25 -9 -25 -26 -2 -16 20 -18 58 -4 67 6 3 10 19 10 36 0 42 23 36
37 -10z m-587 19 c0 -5 -4 -10 -10 -10 -5 0 -10 5 -10 10 0 6 5 10 10 10 6 0
10 -4 10 -10z m2010 -13 c0 -7 -6 -21 -13 -32 -19 -26 -30 -3 -11 23 17 25 24
28 24 9z m-1980 -117 c0 -5 -2 -10 -4 -10 -3 0 -8 5 -11 10 -3 6 -1 10 4 10 6
0 11 -4 11 -10z m4104 -12 c10 -38 7 -58 -9 -58 -8 0 -15 4 -15 9 0 5 -3 23
-6 40 -5 24 -3 31 9 31 8 0 17 -10 21 -22z m36 -62 c0 -3 -4 -8 -10 -11 -5 -3
-10 -1 -10 4 0 6 5 11 10 11 6 0 10 -2 10 -4z m-3840 -36 c10 0 3 -34 -17 -78
-19 -42 -28 -35 -18 15 10 49 11 54 15 78 2 17 3 18 7 3 2 -10 8 -18 13 -18z
m2275 -300 c3 -29 12 -61 20 -70 19 -21 19 -50 1 -50 -20 0 -28 -28 -10 -38
13 -7 15 -23 11 -78 -2 -38 -9 -85 -14 -105 -7 -23 -7 -43 -1 -53 7 -12 5 -24
-6 -41 -9 -13 -16 -41 -16 -60 0 -39 -22 -46 -29 -9 -5 28 -36 53 -58 48 -17
-5 -19 -1 -15 25 2 17 0 31 -5 31 -14 0 -7 97 12 165 9 33 18 71 20 84 2 14
10 41 19 60 8 20 25 62 37 93 12 32 24 56 25 55 2 -2 6 -27 9 -57z m-495 -55
c0 -27 -20 -65 -34 -65 -27 0 -29 44 -4 77 12 14 38 6 38 -12z m-376 -676 c-8
-14 -24 -10 -24 6 0 9 6 12 15 9 8 -4 12 -10 9 -15z m-7725 -1831 c2 -30 -16
-20 -23 13 -7 39 5 64 15 29 4 -14 7 -33 8 -42z m-2507 -888 c6 -14 -1 -120
-8 -129 -2 -2 -10 2 -19 9 -15 13 -21 92 -9 124 7 19 27 17 36 -4z m4101
-3194 c3 -8 -1 -20 -9 -26 -12 -10 -14 -8 -14 14 0 28 14 35 23 12z m-2281
-334 c-3 -8 3 -21 13 -28 13 -10 16 -21 12 -42 -3 -15 -2 -54 2 -85 6 -43 4
-60 -5 -68 -11 -9 -11 -17 2 -41 10 -20 14 -42 10 -62 -4 -17 -8 -38 -9 -46
-2 -8 -13 -35 -25 -59 -12 -25 -22 -50 -22 -57 0 -7 -10 -16 -22 -20 -29 -9
-47 -33 -48 -62 0 -13 -13 -34 -30 -49 -18 -14 -30 -34 -30 -48 0 -24 -30 -42
-50 -30 -13 8 -13 62 0 70 6 3 10 17 10 31 0 13 5 24 10 24 6 0 10 11 10 24 0
18 8 25 33 32 17 6 32 16 32 24 0 8 12 20 26 27 17 8 30 26 38 55 7 24 18 46
25 50 14 9 -19 43 -51 53 -27 8 -31 -10 -7 -36 14 -16 14 -18 -5 -24 -12 -3
-25 -4 -30 0 -6 3 -14 -3 -20 -12 -9 -16 -12 -16 -20 -3 -6 8 -18 15 -28 15
-13 0 -19 9 -21 33 -3 25 -7 32 -19 28 -8 -3 -19 -6 -24 -6 -5 0 -9 -6 -9 -14
0 -17 -88 -28 -108 -13 -7 5 -30 7 -51 4 -31 -4 -38 -2 -34 9 3 9 -2 14 -17
14 -12 0 -28 6 -35 14 -12 12 -9 16 23 31 20 10 40 23 44 29 4 6 22 16 40 22
28 9 32 15 30 38 -3 23 3 29 52 52 31 14 56 31 56 37 0 7 8 17 18 22 68 38
130 65 147 65 11 0 34 8 50 19 31 19 48 11 37 -17z m95 -4 c-11 -46 -32 -98
-39 -98 -16 0 -19 23 -4 39 9 10 16 29 16 43 0 26 7 38 23 38 5 0 7 -10 4 -22z
m11013 -262 c0 -48 -21 -62 -66 -45 -30 12 -37 20 -40 47 l-4 32 55 0 55 0 0
-34z m-11663 -63 c-9 -9 -19 -14 -23 -11 -10 10 6 28 24 28 15 0 15 -1 -1 -17z
m11635 -34 c-4 -37 -19 -45 -40 -23 -18 18 -18 19 2 36 27 22 42 17 38 -13z
m-11332 -509 c0 -47 -2 -50 -25 -50 -21 0 -25 5 -25 28 0 29 24 72 41 72 5 0
9 -22 9 -50z m120 -320 c0 -5 -7 -10 -16 -10 -8 0 -12 5 -9 10 3 6 10 10 16
10 5 0 9 -4 9 -10z m468 -17 c-2 -10 -7 -16 -12 -15 -5 2 -13 -2 -18 -10 -7
-9 -8 -8 -4 5 3 10 6 23 6 28 0 5 7 9 16 9 9 0 14 -7 12 -17z m-304 -280 c-10
-49 -13 -53 -37 -53 -13 0 -26 3 -30 6 -10 10 14 51 37 62 33 16 37 14 30 -15z
m274 -45 c-6 -18 -28 -21 -28 -4 0 9 7 16 16 16 9 0 14 -5 12 -12z m2381 -350
c19 -17 27 -19 42 -10 30 19 59 15 59 -8 0 -13 7 -20 18 -20 22 0 47 -26 70
-72 14 -27 22 -32 45 -30 23 3 27 0 27 -22 0 -14 5 -26 10 -26 15 0 12 -36 -3
-49 -10 -8 -42 -5 -123 10 -118 23 -174 42 -174 60 0 16 -32 83 -44 91 -6 4
-5 17 1 35 6 15 14 36 17 46 7 23 27 22 55 -5z m-152 -38 c-7 -17 -19 -30 -29
-30 -28 0 -33 22 -9 41 12 10 19 24 16 30 -6 8 -2 8 13 0 18 -10 19 -14 9 -41z
m556 -177 c-13 -2 -33 -2 -45 0 -13 2 -3 4 22 4 25 0 35 -2 23 -4z"/>
<path d="M9815 10009 c-11 -17 1 -21 15 -4 8 9 8 15 2 15 -6 0 -14 -5 -17 -11z"/>
<path d="M2295 2120 c-8 -12 20 -24 35 -15 5 3 10 10 10 16 0 12 -37 12 -45
-1z"/>
<path d="M2395 2100 c-3 -5 1 -10 10 -10 9 0 13 5 10 10 -3 6 -8 10 -10 10 -2
0 -7 -4 -10 -10z"/>
<path d="M2237 2070 c6 -23 14 -25 31 -8 18 18 14 28 -12 28 -19 0 -23 -4 -19
-20z"/>
<path d="M2344 2025 c-10 -8 -27 -15 -36 -15 -10 0 -18 -5 -18 -11 0 -7 -10
-9 -25 -7 -14 3 -25 1 -25 -3 0 -5 -11 -9 -24 -9 -14 0 -28 -5 -32 -11 -4 -6
-19 -8 -37 -5 -34 7 -77 -15 -77 -39 0 -13 3 -13 20 -3 16 10 22 10 32 -4 22
-28 46 -25 76 12 28 33 30 34 54 18 23 -15 53 -22 89 -19 12 1 18 15 22 54 2
28 4 53 3 54 -1 2 -11 -4 -22 -12z"/>
<path d="M5491 10285 c-1 -28 -5 -55 -10 -60 -6 -6 -12 -67 -15 -137 -4 -113
-3 -129 12 -137 14 -8 15 -13 5 -30 -7 -12 -13 -45 -13 -75 0 -35 -11 -89 -31
-148 -17 -51 -32 -116 -33 -143 -1 -35 -9 -61 -24 -82 -18 -26 -21 -40 -16
-72 4 -27 2 -46 -6 -56 -11 -13 -11 -20 0 -40 16 -29 8 -60 -26 -110 -24 -36
-25 -42 -14 -75 7 -19 19 -42 26 -51 12 -13 10 -23 -14 -69 -15 -29 -31 -55
-37 -56 -13 -3 -58 53 -58 72 0 17 -19 18 -34 3 -8 -8 -17 -8 -31 0 -11 6 -27
11 -35 11 -17 0 -82 -87 -103 -136 -10 -24 -21 -33 -46 -37 -44 -7 -108 -30
-108 -39 0 -4 7 -5 15 -2 8 4 15 1 15 -5 0 -6 11 -11 25 -11 34 0 32 -21 -4
-45 -16 -10 -27 -23 -25 -27 3 -4 -4 -8 -15 -8 -12 0 -21 -7 -21 -15 0 -8 6
-15 14 -15 8 0 16 -7 20 -15 7 -19 35 -20 42 -1 6 15 77 16 92 2 10 -11 -33
-80 -53 -84 -9 -2 -28 7 -42 20 -24 23 -25 23 -39 3 -20 -26 -13 -40 22 -42
127 -7 196 -13 205 -18 5 -4 31 -10 56 -13 25 -4 49 -14 53 -22 4 -8 16 -35
27 -59 l19 -43 31 26 c37 31 50 33 58 6 8 -24 32 -26 64 -4 22 16 26 16 53 0
16 -10 35 -15 43 -13 7 3 21 -3 31 -14 9 -10 23 -19 31 -19 7 0 13 -7 13 -15
0 -8 9 -15 21 -15 11 0 17 5 14 10 -18 28 156 50 187 23 13 -11 21 -12 38 -3
11 6 29 9 39 5 10 -3 24 1 31 10 16 20 22 19 48 -5 18 -17 26 -19 43 -9 12 6
30 9 40 6 10 -3 17 -2 14 2 -2 5 13 14 34 21 22 7 45 23 52 36 17 33 30 30 55
-13 l21 -36 21 21 c21 21 28 58 24 122 -1 22 12 39 30 40 15 0 48 -45 48 -65
0 -12 7 -30 15 -41 8 -10 15 -36 15 -56 0 -21 4 -38 10 -38 13 0 50 41 50 57
0 19 37 47 62 48 26 0 35 31 44 145 3 35 7 66 9 68 2 3 -5 12 -17 22 -15 12
-19 22 -14 36 6 12 10 15 13 7 8 -22 20 -15 43 24 12 21 31 43 41 51 12 8 19
25 19 44 0 17 10 42 25 59 18 23 23 37 18 59 -3 19 -1 30 5 30 6 0 14 15 18
34 3 19 12 37 18 39 17 7 13 46 -5 58 -10 6 -5 9 18 9 50 0 74 39 73 119 0 65
22 187 40 222 6 10 10 27 10 38 0 12 5 21 10 21 6 0 10 9 10 20 0 11 5 20 10
20 6 0 10 -4 10 -10 0 -5 5 -10 10 -10 6 0 10 14 10 31 0 17 4 28 10 24 14 -9
13 48 -2 63 -9 9 -5 17 15 35 27 23 36 67 19 95 -7 9 -13 8 -27 -8 -18 -20
-18 -20 -37 -1 -21 24 -23 47 -4 54 7 3 16 22 20 41 4 20 11 36 16 36 5 0 10
10 12 22 2 12 9 24 17 26 9 3 12 0 8 -10 -3 -9 -1 -20 5 -26 7 -7 4 -14 -11
-24 -11 -7 -21 -20 -21 -30 0 -9 -6 -18 -12 -21 -10 -4 -10 -7 0 -18 6 -7 12
-8 12 -3 0 6 10 10 23 10 16 -1 22 5 22 19 0 11 7 21 16 23 11 2 18 16 21 38
4 37 -6 54 -34 54 -11 0 -20 10 -24 25 -9 36 4 44 25 16 22 -29 51 -22 51 13
0 16 -7 25 -22 29 -38 10 -3 37 49 37 40 0 43 2 34 19 -6 10 -7 21 -4 25 14
14 30 77 26 101 l-5 25 -697 0 -696 0 -23 -35 c-13 -18 -21 -39 -17 -44 3 -6
-1 -32 -9 -58 -20 -64 -36 -138 -36 -164 0 -30 -38 -79 -61 -79 -22 0 -25 21
-7 53 6 12 11 38 11 59 0 21 4 38 10 38 5 0 5 6 -1 13 -9 10 -6 23 9 52 16 29
19 46 13 74 -4 20 -6 41 -4 46 13 47 16 45 -54 45 -61 0 -66 -2 -67 -22 -1
-22 -1 -22 -9 2 -6 20 -8 15 -9 -25z m597 8 c14 -32 16 -165 2 -193 -5 -11
-14 -29 -20 -40 -5 -11 -10 -33 -10 -49 0 -17 -5 -33 -10 -36 -6 -3 -7 -17 -4
-31 7 -26 -12 -58 -27 -48 -12 7 -48 -36 -49 -58 0 -11 -8 -18 -20 -18 -19 0
-21 -5 -24 -52 -1 -9 -4 -20 -8 -24 -5 -4 -8 -15 -8 -25 0 -9 -6 -19 -14 -22
-8 -3 -16 -31 -20 -76 -4 -39 -11 -69 -15 -66 -5 2 -7 21 -5 42 2 21 5 66 8
100 2 34 8 67 12 74 4 7 9 24 11 38 6 58 16 91 25 91 6 0 8 10 5 23 -3 12 1
31 9 41 8 11 14 37 14 57 0 21 5 41 10 44 6 3 10 30 10 58 0 87 32 154 86 186
26 15 27 14 42 -16z m276 -37 c-3 -14 -12 -26 -20 -26 -17 0 -18 24 -3 52 15
27 32 9 23 -26z m-89 -26 c-3 -6 -10 -10 -16 -10 -10 0 -12 33 -2 44 9 9 26
-22 18 -34z m-705 -41 c0 -30 -7 -46 -27 -67 l-28 -27 -3 28 c-4 32 35 120 49
111 5 -3 9 -23 9 -45z m198 -91 c-12 -31 -38 -38 -38 -10 0 9 8 39 17 66 l18
49 7 -39 c4 -22 2 -51 -4 -66z m155 67 c-7 -21 -13 -19 -13 6 0 11 4 18 10 14
5 -3 7 -12 3 -20z m-268 -344 c-4 -21 -2 -30 9 -34 27 -11 18 -31 -27 -59 -50
-32 -67 -24 -49 25 7 18 12 41 12 50 0 9 12 23 28 31 36 20 35 20 27 -13z
m1227 -13 c-6 -6 -7 0 -4 19 5 21 7 23 10 9 2 -10 0 -22 -6 -28z m-905 -114
c-3 -4 -2 -15 3 -25 13 -23 -5 -36 -25 -19 -16 13 -4 50 17 50 6 0 8 -3 5 -6z
m-337 -128 c0 -8 -4 -18 -10 -21 -5 -3 -10 3 -10 14 0 12 5 21 10 21 6 0 10
-6 10 -14z m230 -113 c-1 -22 -50 -61 -50 -40 0 12 35 57 45 57 3 0 5 -8 5
-17z m-190 -169 c0 -8 -4 -12 -10 -9 -5 3 -10 10 -10 16 0 5 5 9 10 9 6 0 10
-7 10 -16z m1046 -118 c12 -12 12 -19 -2 -48 -14 -31 -15 -31 -11 -5 2 15 0
30 -4 33 -10 6 -12 34 -3 34 3 0 12 -6 20 -14z m-1231 -36 c3 -5 1 -10 -4 -10
-6 0 -11 5 -11 10 0 6 2 10 4 10 3 0 8 -4 11 -10z m1140 -207 c-3 -18 -10 -33
-15 -33 -13 0 -13 67 0 75 6 3 11 16 11 28 2 16 3 13 6 -7 3 -16 2 -44 -2 -63z
m-1455 33 c0 -7 -8 -20 -17 -27 -15 -12 -16 -12 -10 4 4 10 7 23 7 28 0 5 5 9
10 9 6 0 10 -6 10 -14z m1274 -394 c-9 -56 -14 -72 -25 -72 -12 0 -12 77 2
101 16 30 30 12 23 -29z"/>
<path d="M5992 10030 c0 -14 2 -19 5 -12 2 6 2 18 0 25 -3 6 -5 1 -5 -13z"/>
<path d="M7216 10314 c-7 -18 0 -34 15 -34 5 0 9 11 9 25 0 28 -15 34 -24 9z"/>
<path d="M9512 10310 c0 -14 2 -19 5 -12 2 6 2 18 0 25 -3 6 -5 1 -5 -13z"/>
<path d="M10428 10318 c9 -9 15 -9 24 0 9 9 7 12 -12 12 -19 0 -21 -3 -12 -12z"/>
<path d="M9590 10302 c1 -17 19 -34 29 -28 17 11 13 23 -9 29 -11 3 -20 2 -20
-1z"/>
<path d="M9280 10293 c0 -6 -3 -20 -6 -30 -7 -17 -6 -17 12 -1 14 14 16 21 6
30 -8 8 -12 9 -12 1z"/>
<path d="M9577 10253 c-4 -3 -7 -14 -7 -23 0 -10 -9 -29 -21 -43 -25 -33 -12
-67 27 -67 25 0 25 1 22 70 -2 67 -6 78 -21 63z"/>
<path d="M9490 10206 c0 -9 5 -16 10 -16 6 0 10 4 10 9 0 6 -4 13 -10 16 -5 3
-10 -1 -10 -9z"/>
<path d="M10365 10211 c-7 -12 21 -71 35 -71 14 0 25 23 12 28 -7 2 -12 9 -12
17 0 18 -27 39 -35 26z"/>
<path d="M7220 10150 c0 -5 5 -10 10 -10 6 0 10 5 10 10 0 6 -4 10 -10 10 -5
0 -10 -4 -10 -10z"/>
<path d="M420 10065 c0 -8 11 -20 24 -25 13 -5 29 -17 34 -26 9 -16 10 -16 20
3 21 38 9 58 -36 61 -33 2 -42 0 -42 -13z"/>
<path d="M9330 10041 c0 -35 3 -42 18 -39 20 4 18 45 -4 68 -12 12 -14 9 -14
-29z"/>
<path d="M10241 9991 c-17 -13 -22 -25 -19 -39 3 -12 1 -42 -4 -67 -8 -38 -7
-49 6 -64 22 -25 20 -44 -9 -71 -28 -26 -33 -61 -11 -79 19 -16 38 5 55 60 7
24 18 55 23 69 6 14 12 36 14 50 2 14 4 32 5 40 5 29 -14 120 -25 120 -6 0
-22 -9 -35 -19z"/>
<path d="M9600 9980 c0 -5 5 -10 10 -10 6 0 10 5 10 10 0 6 -4 10 -10 10 -5 0
-10 -4 -10 -10z"/>
<path d="M481 9935 c1 -40 1 -40 11 -12 7 21 7 32 -1 40 -8 8 -11 0 -10 -28z"/>
<path d="M9302 9910 c0 -14 2 -19 5 -12 2 6 2 18 0 25 -3 6 -5 1 -5 -13z"/>
<path d="M9330 9904 c0 -14 4 -23 10 -19 6 3 10 15 10 26 0 10 -4 19 -10 19
-5 0 -10 -12 -10 -26z"/>
<path d="M7330 9668 c0 -19 2 -20 10 -8 13 19 13 30 0 30 -5 0 -10 -10 -10
-22z"/>
<path d="M7076 9663 c-12 -12 -6 -51 10 -57 18 -7 12 -55 -12 -93 -13 -20 -12
-23 6 -33 15 -8 21 -6 29 9 6 10 8 21 4 24 -3 3 2 13 11 22 21 22 20 41 -4 65
-11 11 -20 29 -20 39 0 21 -13 34 -24 24z"/>
<path d="M7288 9648 c-6 -17 18 -84 29 -80 4 2 7 11 5 20 -2 9 -3 29 -2 45 0
27 -24 39 -32 15z"/>
<path d="M10230 9624 c0 -6 -11 -17 -25 -24 -18 -10 -25 -21 -25 -44 0 -17 4
-26 8 -20 4 6 22 15 40 19 42 9 51 31 23 58 -11 12 -21 17 -21 11z"/>
<path d="M4435 9540 c-3 -5 1 -10 9 -10 9 0 16 5 16 10 0 6 -4 10 -9 10 -6 0
-13 -4 -16 -10z"/>
<path d="M7260 9485 c0 -8 5 -15 11 -15 5 0 7 -4 4 -10 -3 -5 1 -10 9 -10 19
0 21 21 4 38 -16 16 -28 15 -28 -3z"/>
<path d="M10157 9453 c-10 -9 -8 -43 2 -43 5 0 14 7 21 15 17 21 -4 48 -23 28z"/>
<path d="M7306 9238 c-8 -32 -7 -63 1 -54 7 7 15 76 9 76 -2 0 -6 -10 -10 -22z"/>
<path d="M5205 9129 c-11 -16 -1 -19 13 -3 7 8 8 14 3 14 -5 0 -13 -5 -16 -11z"/>
<path d="M5166 9105 c-11 -8 -17 -18 -13 -21 10 -11 37 4 37 21 0 18 0 18 -24
0z"/>
<path d="M5226 9065 c-3 -9 0 -15 9 -15 16 0 20 16 6 24 -5 3 -11 -1 -15 -9z"/>
<path d="M4400 8764 c0 -8 5 -12 10 -9 6 4 8 11 5 16 -9 14 -15 11 -15 -7z"/>
<path d="M4754 8751 c3 -5 15 -7 26 -4 28 7 25 13 -6 13 -14 0 -23 -4 -20 -9z"/>
<path d="M4573 8713 c-13 -2 -23 -9 -23 -14 0 -16 29 -22 45 -9 16 13 20 31 8
29 -5 -1 -18 -4 -30 -6z"/>
<path d="M473 8533 c9 -9 20 -13 24 -9 4 4 1 11 -7 16 -25 16 -35 11 -17 -7z"/>
<path d="M500 8481 c0 -6 5 -13 10 -16 6 -3 10 1 10 9 0 9 -4 16 -10 16 -5 0
-10 -4 -10 -9z"/>
<path d="M8530 8349 c0 -18 2 -19 15 -9 8 7 15 16 15 21 0 5 -7 9 -15 9 -9 0
-15 -9 -15 -21z"/>
<path d="M10786 8144 c-8 -22 1 -31 16 -16 9 9 9 15 1 23 -7 7 -12 5 -17 -7z"/>
<path d="M4948 8099 c-25 -27 -32 -29 -96 -29 -52 0 -75 -5 -93 -19 -13 -10
-50 -31 -82 -46 -55 -27 -58 -28 -71 -10 -7 10 -18 15 -25 11 -9 -6 -8 -12 3
-25 15 -16 15 -19 -1 -33 -10 -8 -31 -22 -48 -29 -16 -8 -31 -23 -33 -34 -2
-11 -34 -49 -70 -85 -37 -36 -73 -78 -79 -93 -8 -16 -20 -27 -32 -27 -11 0
-23 -9 -26 -20 -4 -11 -22 -37 -42 -58 -19 -20 -39 -49 -45 -64 -5 -16 -18
-28 -31 -30 -12 -2 -23 -11 -25 -20 -3 -15 4 -18 45 -18 26 0 55 -5 63 -10 13
-9 13 -12 -2 -24 -23 -17 -23 -23 6 -49 65 -59 76 -63 76 -28 0 9 9 27 20 41
23 30 26 87 5 110 -14 16 -14 20 2 47 9 17 32 36 50 42 18 7 33 16 33 22 0 14
71 89 85 89 7 0 28 13 46 30 19 16 39 30 45 30 6 0 16 11 22 25 8 16 17 23 27
19 9 -4 23 2 33 13 9 11 40 25 67 32 28 7 57 19 65 26 41 37 250 82 250 54 0
-6 -17 -31 -37 -54 -67 -75 -98 -117 -114 -154 -27 -58 -47 -151 -49 -223 l-1
-66 68 1 c84 1 94 -4 83 -43 -7 -26 -5 -32 26 -55 50 -38 57 -58 39 -101 l-15
-37 -23 19 c-12 10 -24 21 -27 24 -3 3 -18 13 -33 23 -42 27 -55 62 -32 87 18
20 17 20 -23 20 -31 0 -42 -4 -42 -16 0 -55 86 -231 144 -293 71 -76 194 -151
248 -151 16 0 41 -6 56 -13 50 -25 236 -9 284 24 14 11 31 19 37 19 18 0 151
120 179 162 36 55 38 57 60 103 46 95 58 228 32 356 -7 37 -10 74 -7 83 9 24
42 19 61 -9 9 -14 23 -25 31 -25 8 0 15 -4 15 -10 0 -5 7 -10 15 -10 8 0 15
-4 15 -8 0 -5 12 -14 27 -21 38 -17 51 1 24 35 -11 15 -21 31 -21 36 0 11 -66
92 -121 147 -35 36 -52 49 -121 99 -21 15 -38 32 -38 37 0 27 -121 83 -270
125 -112 31 -146 44 -163 58 -16 14 -20 14 -46 -1 -16 -9 -31 -14 -35 -10 -6
6 -32 8 -206 17 -41 2 -88 6 -105 9 -24 4 -35 0 -57 -24z m132 -454 c0 -14
-29 -35 -49 -35 -12 0 -15 33 -4 43 13 13 53 7 53 -8z m721 -72 c25 -75 32
-125 19 -143 -9 -13 -12 -12 -25 4 -8 11 -15 34 -15 52 0 17 -3 52 -6 78 -8
57 9 62 27 9z m-431 -3 c12 0 60 -71 55 -80 -2 -4 -30 -5 -62 -2 -59 4 -83 19
-83 53 0 18 46 40 68 33 8 -2 18 -4 22 -4z m278 -62 c7 -7 12 -22 12 -33 0
-20 -4 -21 -37 -16 -29 5 -39 12 -41 28 -2 14 3 23 15 26 31 8 39 7 51 -5z
m-1328 -23 c0 -8 -7 -15 -15 -15 -26 0 -18 20 13 29 1 1 2 -6 2 -14z m980 -44
c0 -21 -19 -31 -60 -31 -41 0 -60 10 -60 31 0 17 8 19 60 19 52 0 60 -2 60
-19z"/>
<path d="M10248 8003 c-29 -15 -40 -15 -238 -10 -100 2 -143 -1 -164 -11 -16
-8 -57 -16 -90 -18 -64 -5 -139 -24 -218 -55 -26 -11 -53 -19 -60 -19 -46 0
-277 -151 -278 -181 0 -8 -15 -33 -33 -55 -44 -52 -67 -90 -67 -109 0 -8 -4
-15 -10 -15 -5 0 -12 -11 -16 -25 -3 -14 -15 -30 -25 -36 -11 -5 -19 -17 -19
-27 1 -14 4 -13 19 6 11 12 24 22 29 22 5 0 20 11 33 25 13 15 50 39 82 56 31
16 57 36 57 43 0 22 29 46 55 46 13 0 29 10 39 25 40 61 62 6 27 -70 -27 -61
-46 -172 -32 -189 7 -8 9 -25 5 -42 -7 -26 -6 -27 29 -21 41 6 70 -14 48 -36
-6 -6 -17 -12 -24 -13 -7 0 -22 -2 -34 -2 -19 -2 -21 -6 -16 -39 3 -21 11 -47
18 -59 8 -12 17 -37 20 -58 4 -20 11 -36 16 -36 5 0 9 -7 9 -15 0 -8 5 -15 10
-15 6 0 10 -7 10 -15 0 -8 13 -29 29 -45 15 -17 37 -42 47 -56 11 -14 35 -35
54 -46 19 -12 43 -28 53 -36 41 -36 147 -62 248 -62 54 0 111 5 126 11 64 26
160 75 189 96 17 13 35 23 41 23 21 0 129 119 156 171 15 30 27 59 27 65 0 6
9 28 19 50 11 23 25 62 32 87 14 59 2 77 -51 77 -43 0 -57 12 -65 58 -5 28 -2
34 20 42 32 12 31 16 -3 34 -16 8 -29 21 -29 28 0 7 -3 23 -7 34 -7 23 15 54
38 54 8 0 19 7 26 15 18 22 -3 88 -35 109 -26 17 -60 74 -50 84 12 12 106 8
117 -5 6 -7 16 -13 24 -13 12 0 39 -10 119 -45 17 -8 40 -16 52 -20 11 -3 28
-17 37 -30 9 -14 21 -25 27 -25 11 0 25 -12 102 -87 18 -18 41 -33 50 -33 10
0 22 -11 27 -25 5 -14 13 -25 18 -25 5 0 32 -22 61 -50 29 -27 58 -50 65 -50
8 0 21 -11 30 -25 11 -17 26 -25 46 -25 19 0 31 -6 35 -19 3 -11 19 -21 37
-25 36 -7 89 -7 71 1 -7 2 -13 14 -13 24 0 26 -18 59 -31 59 -6 0 -26 12 -45
26 -28 22 -34 33 -34 65 0 33 -4 40 -25 45 -26 6 -33 35 -16 63 13 20 -8 61
-31 61 -10 0 -18 -5 -18 -11 0 -6 -12 -9 -27 -7 -35 4 -41 31 -14 55 12 9 21
23 21 30 0 18 -47 16 -58 -2 -5 -10 -17 -14 -33 -11 -13 2 -26 5 -29 5 -3 1 2
6 10 11 12 8 11 13 -8 33 -12 13 -22 31 -22 40 0 20 -11 22 -27 6 -7 -7 -23
-9 -38 -5 -22 6 -26 11 -22 31 3 16 -1 25 -9 26 -18 2 -24 4 -57 17 -16 7 -37
12 -47 12 -10 0 -22 5 -25 10 -3 6 -30 10 -60 10 -30 0 -57 5 -61 11 -3 6 -17
8 -29 5 -17 -4 -28 0 -39 15 -13 19 -19 20 -45 11 -31 -11 -48 -2 -36 18 4 7
-5 9 -26 5 -18 -3 -35 -2 -38 3 -3 4 -18 2 -33 -5z m-7 -451 c19 -16 23 -31
27 -104 4 -69 1 -90 -13 -112 -21 -32 -41 -34 -48 -3 -3 12 -11 37 -18 54 -12
29 -11 37 5 64 16 28 17 32 2 48 -19 21 -21 57 -3 64 20 9 24 8 48 -11z m-523
-71 c4 -28 -12 -41 -51 -41 -38 0 -47 28 -17 52 31 25 64 20 68 -11z m1302
-11 c0 -11 -4 -20 -10 -20 -5 0 -10 9 -10 20 0 11 5 20 10 20 6 0 10 -9 10
-20z m-1009 0 c22 -12 25 -33 6 -48 -20 -17 -97 -3 -97 17 0 37 48 53 91 31z
m-405 -85 c-15 -16 -76 -21 -76 -7 0 16 14 22 52 22 35 0 38 -2 24 -15z m558
-381 c22 -8 20 -21 -5 -34 -15 -9 -24 -8 -35 0 -7 7 -26 10 -41 7 -22 -5 -19
-2 12 13 45 22 47 22 69 14z m-104 -62 c0 -13 -12 -22 -22 -16 -10 6 -1 24 13
24 5 0 9 -4 9 -8z"/>
<path d="M11190 7970 c0 -5 5 -10 11 -10 5 0 7 5 4 10 -3 6 -8 10 -11 10 -2 0
-4 -4 -4 -10z"/>
<path d="M490 7793 c1 -11 26 -43 34 -43 3 0 6 11 6 25 0 18 -5 25 -20 25 -11
0 -20 -3 -20 -7z"/>
<path d="M11785 7650 c-19 -7 -19 -8 -2 -15 19 -8 31 -2 26 13 -2 5 -13 6 -24
2z"/>
<path d="M6163 7535 c0 -8 6 -16 14 -19 15 -6 15 -4 7 18 -8 20 -21 21 -21 1z"/>
<path d="M6332 7349 c5 -16 14 -32 19 -35 19 -11 8 -26 -15 -20 -30 7 -36 0
-22 -29 14 -31 18 -31 50 -2 l25 22 -20 42 c-25 51 -53 68 -37 22z"/>
<path d="M8900 7275 c1 -26 2 -28 11 -12 8 14 8 22 0 30 -8 8 -11 3 -11 -18z"/>
<path d="M8885 7220 c-3 -5 1 -10 9 -10 9 0 16 5 16 10 0 6 -4 10 -9 10 -6 0
-13 -4 -16 -10z"/>
<path d="M6308 7163 c-6 -7 -16 -13 -23 -13 -7 0 -18 -7 -25 -15 -23 -27 1
-37 61 -24 64 13 100 34 93 53 -7 17 -91 16 -106 -1z"/>
<path d="M8844 7105 c-3 -14 -3 -32 0 -41 7 -19 47 -15 54 5 3 10 0 12 -12 8
-12 -5 -17 -2 -15 11 4 47 -16 60 -27 17z"/>
<path d="M583 6435 c0 -22 2 -30 4 -17 2 12 2 30 0 40 -3 9 -5 -1 -4 -23z"/>
<path d="M3502 5408 c-18 -9 -22 -18 -20 -41 3 -28 8 -32 93 -58 50 -15 122
-33 160 -39 81 -14 153 -32 210 -53 22 -8 73 -17 113 -21 40 -4 88 -13 106
-21 18 -8 43 -11 55 -8 14 4 30 -1 44 -15 12 -11 36 -24 52 -28 17 -4 46 -15
65 -25 19 -10 55 -23 80 -29 25 -5 81 -19 125 -30 44 -12 89 -20 100 -20 35 2
39 1 115 -20 41 -11 100 -27 130 -36 30 -8 78 -21 105 -28 28 -8 70 -20 95
-26 25 -7 53 -16 62 -21 10 -5 56 -9 102 -9 47 0 97 -5 111 -10 34 -13 65 3
65 33 0 29 -107 92 -170 100 -24 3 -46 11 -48 16 -2 6 -23 11 -46 11 -24 0
-57 7 -74 16 -18 8 -49 17 -69 19 -21 2 -54 10 -73 18 -19 8 -62 20 -95 26
-33 7 -72 17 -87 23 -15 5 -44 12 -65 14 -110 10 -149 19 -181 40 -19 13 -40
24 -46 24 -32 1 -93 13 -108 21 -9 5 -37 9 -62 9 -25 0 -46 4 -46 8 0 5 -26
15 -57 22 -106 23 -227 50 -278 60 -27 6 -66 15 -85 20 -89 24 -164 40 -185
40 -13 0 -50 7 -82 15 -66 17 -80 18 -111 3z"/>
<path d="M10960 5234 c-47 -8 -112 -18 -145 -24 -33 -6 -91 -15 -130 -20 -89
-12 -237 -37 -295 -51 -46 -11 -124 -23 -244 -38 -38 -5 -72 -14 -76 -20 -4
-7 -27 -14 -51 -16 -24 -2 -80 -9 -124 -15 -182 -25 -262 -41 -285 -55 -7 -4
-32 -9 -54 -11 -76 -5 -161 -20 -183 -32 -12 -7 -38 -12 -57 -12 -40 0 -162
-54 -170 -76 -12 -31 15 -53 58 -45 4 1 54 3 110 6 94 3 142 9 271 35 204 40
280 53 350 60 44 5 98 13 120 19 22 6 59 11 82 11 23 0 45 5 48 10 3 6 14 10
23 10 9 1 35 9 57 20 22 11 49 19 59 20 11 0 28 8 38 17 10 9 37 17 61 18 86
4 283 27 302 35 28 12 76 20 175 30 84 9 119 16 215 42 45 13 50 17 53 44 5
55 -45 64 -208 38z"/>
<path d="M7288 5148 c-21 -23 -38 -45 -38 -49 0 -8 -25 -66 -66 -154 -24 -52
-61 -65 -187 -65 -150 0 -221 -25 -197 -70 6 -11 17 -20 24 -20 7 0 33 -17 57
-38 24 -22 63 -51 86 -65 23 -15 47 -35 52 -46 11 -19 4 -81 -8 -81 -16 0 -51
-125 -51 -182 0 -19 5 -39 12 -46 29 -29 117 0 209 71 68 51 79 56 112 46 17
-5 33 -12 36 -17 3 -5 26 -22 51 -39 25 -17 60 -47 78 -67 33 -35 34 -35 95
-30 69 7 91 24 82 64 -10 47 -49 165 -67 207 -14 31 -17 53 -12 90 3 26 8 50
10 52 2 2 23 4 45 3 88 -4 159 39 159 94 0 37 -85 74 -172 74 -53 0 -89 13
-105 39 -6 9 -17 60 -24 112 -7 52 -18 99 -24 105 -10 10 -101 54 -113 54 -3
0 -22 -19 -44 -42z"/>
<path d="M5225 4213 c-153 -13 -209 -24 -231 -44 -19 -18 -26 -20 -39 -9 -15
13 -55 8 -215 -26 -36 -7 -108 -18 -160 -25 -52 -6 -133 -18 -180 -26 -47 -8
-152 -23 -235 -33 -82 -10 -168 -24 -190 -31 -22 -6 -71 -14 -110 -16 -38 -3
-76 -10 -83 -16 -7 -6 -36 -10 -65 -9 -104 3 -309 -57 -336 -98 -14 -21 -13
-24 8 -41 36 -29 61 -32 193 -20 236 20 304 29 393 49 114 26 295 51 361 50
28 0 60 5 72 11 11 6 48 11 81 11 33 0 63 4 66 10 3 5 29 9 58 9 29 -1 65 4
80 10 16 6 50 14 75 17 26 3 54 12 64 20 24 23 165 58 233 59 33 1 76 6 95 12
19 6 60 14 90 18 66 8 80 18 80 60 0 49 -28 64 -105 58z"/>
<path d="M9260 4127 c-19 -10 -25 -20 -25 -47 0 -41 21 -55 112 -71 32 -6 62
-15 68 -20 5 -5 35 -9 67 -9 31 0 67 -4 80 -9 13 -5 49 -17 80 -26 32 -9 68
-25 82 -36 13 -10 38 -19 55 -19 18 0 49 -9 71 -20 23 -12 59 -20 86 -20 26 0
61 -4 78 -9 52 -16 147 -32 236 -41 98 -10 192 -26 271 -46 31 -8 64 -12 72
-8 9 3 24 -1 32 -10 18 -18 22 -19 145 -36 47 -7 112 -16 145 -22 33 -5 95
-11 138 -14 66 -5 81 -3 98 11 10 10 19 27 19 38 0 24 -36 57 -62 57 -10 0
-33 8 -51 17 -36 19 -89 30 -198 42 -42 4 -82 12 -90 16 -7 5 -34 10 -59 11
-25 2 -79 15 -120 29 -41 14 -84 27 -95 27 -25 1 -213 33 -280 48 -27 6 -104
20 -170 31 -66 11 -147 27 -180 35 -107 29 -199 46 -243 45 -30 -1 -49 5 -64
19 -13 12 -36 20 -57 20 -20 0 -52 4 -71 9 -69 18 -144 22 -170 8z"/>
<path d="M3 4048 c2 -18 6 -39 10 -45 5 -8 4 -13 -2 -13 -8 0 -11 -95 -11
-298 l0 -298 36 -13 c19 -7 38 -11 40 -8 3 3 16 -5 28 -17 64 -59 88 -76 106
-76 10 0 22 -4 25 -10 9 -15 42 -12 49 5 15 39 -23 154 -54 162 -15 4 -17 10
-10 28 6 15 4 34 -7 57 -14 31 -18 33 -51 30 -35 -4 -35 -4 -29 27 4 18 2 31
-3 31 -13 0 -13 37 0 45 11 7 2 94 -12 112 -5 6 -10 28 -11 47 -1 20 -5 36 -9
36 -5 0 -8 17 -8 39 0 35 -16 67 -57 109 -10 10 -10 17 -1 32 9 14 9 22 -1 34
-21 25 -30 19 -28 -16z m245 -671 c3 -14 -5 -17 -42 -17 -36 0 -46 4 -46 16 0
13 3 14 15 4 12 -10 18 -9 31 4 19 20 38 16 42 -7z"/>
<path d="M280 3240 c0 -5 5 -10 11 -10 5 0 7 5 4 10 -3 6 -8 10 -11 10 -2 0
-4 -4 -4 -10z"/>
<path d="M456 3211 c-7 -11 37 -23 58 -15 9 3 13 10 10 15 -7 12 -61 12 -68 0z"/>
<path d="M466 3082 c-3 -5 1 -15 9 -22 16 -14 20 -3 6 19 -5 8 -11 9 -15 3z"/>
<path d="M1953 1661 c-29 -35 -29 -37 -12 -55 15 -16 21 -17 34 -6 9 7 28 10
48 7 17 -3 26 -3 20 0 -7 2 -13 14 -13 25 0 11 -11 31 -24 43 l-23 21 -30 -35z"/>
<path d="M2125 1649 c-4 -6 -5 -12 -2 -15 7 -7 37 7 37 17 0 13 -27 11 -35 -2z"/>
<path d="M2078 1613 c6 -2 18 -2 25 0 6 3 1 5 -13 5 -14 0 -19 -2 -12 -5z"/>
<path d="M2000 1550 c0 -11 7 -20 15 -20 8 0 15 9 15 20 0 11 -7 20 -15 20 -8
0 -15 -9 -15 -20z"/>
<path d="M4846 1233 c-10 -10 -7 -51 5 -58 13 -9 15 -6 23 26 6 26 -13 47 -28
32z"/>
<path d="M4880 1165 c0 -8 7 -15 15 -15 8 0 15 4 15 9 0 5 -7 11 -15 15 -9 3
-15 0 -15 -9z"/>
<path d="M8444 756 c-4 -10 -2 -22 4 -28 8 -8 13 -7 18 6 4 10 2 22 -4 28 -8
8 -13 7 -18 -6z"/>
<path d="M6809 743 c-17 -4 -32 -37 -21 -47 3 -3 16 -6 29 -6 18 0 23 6 23 24
0 28 -7 34 -31 29z"/>
<path d="M6910 688 c0 -7 7 -22 15 -32 20 -26 46 -6 29 22 -14 21 -44 28 -44
10z"/>
<path d="M8416 665 c-3 -9 0 -15 9 -15 9 0 12 6 9 15 -4 8 -7 15 -9 15 -2 0
-5 -7 -9 -15z"/>
<path d="M6746 604 c-7 -28 18 -69 36 -58 18 11 29 56 17 70 -19 23 -46 17
-53 -12z"/>
<path d="M6911 586 c-6 -7 -25 -16 -41 -20 -38 -7 -50 -34 -25 -52 33 -25 82
2 90 49 6 30 -8 43 -24 23z"/>
<path d="M7583 564 c-7 -18 17 -38 31 -24 11 11 1 40 -14 40 -6 0 -13 -7 -17
-16z"/>
<path d="M5612 288 c7 -19 38 -22 38 -4 0 10 -9 16 -21 16 -12 0 -19 -5 -17
-12z"/>
<path d="M5947 294 c-13 -13 -7 -24 14 -24 11 0 19 5 17 12 -5 14 -22 21 -31
12z"/>
<path d="M5876 274 c-3 -9 -6 -31 -6 -50 0 -30 3 -34 25 -34 17 0 25 5 25 18
0 10 5 23 12 30 9 9 9 12 1 12 -7 0 -15 9 -18 20 -8 24 -30 26 -39 4z"/>
<path d="M6000 250 c0 -5 5 -10 11 -10 5 0 7 5 4 10 -3 6 -8 10 -11 10 -2 0
-4 -4 -4 -10z"/>
<path d="M5703 238 c2 -7 12 -13 22 -13 10 0 20 6 23 13 2 7 -6 12 -23 12 -17
0 -25 -5 -22 -12z"/>
</g>
</svg>
